<svg xmlns="http://www.w3.org/2000/svg" viewBox="0 0 350 60"><defs><style>.cls-1{fill:#e02727;}</style></defs><title>资源 1100</title><g id="图层_2" data-name="图层 2"><g id="图层_1-2" data-name="图层 1"><path class="cls-1" d="M239.75,29.32A76.05,76.05,0,0,0,245,14.44a2.18,2.18,0,0,0-.51-2,2.38,2.38,0,0,0-1.89-1.11,2.88,2.88,0,0,0-3.33,2,69.12,69.12,0,0,1-3.22,10.06l-6.1-10a3.08,3.08,0,0,0-1.77-1.25,3.46,3.46,0,0,0-2.28.31,2.59,2.59,0,0,0-1.34,1.64,2.44,2.44,0,0,0,.36,2l8.26,13.58a81,81,0,0,1-8.95,13.56,2.45,2.45,0,0,0-.47,1.87A2.74,2.74,0,0,0,225,46.91l.07,0a2.94,2.94,0,0,0,1.58.45A2.8,2.8,0,0,0,229,46.25a77.81,77.81,0,0,0,7.61-11l3.46,5.56A2.53,2.53,0,0,0,241.8,42a2.73,2.73,0,0,0,2.29-.29,2.59,2.59,0,0,0,1.36-1.55,2.49,2.49,0,0,0-.21-2Z"/><path class="cls-1" d="M268.22,43.19l-6.94-13a78,78,0,0,0,5.48-15.73,2.15,2.15,0,0,0-.43-2,2.5,2.5,0,0,0-1.89-1.11,2.9,2.9,0,0,0-3.33,2,73.26,73.26,0,0,1-3.32,10.32L252.1,12.93a2.84,2.84,0,0,0-1.72-1.42,3.26,3.26,0,0,0-2.14.21,2.48,2.48,0,0,0-1.52,1.47,2.4,2.4,0,0,0,.16,2L254.75,30a87.67,87.67,0,0,1-8.67,13.14,2.51,2.51,0,0,0-.48,1.95,2.56,2.56,0,0,0,1.13,1.69l.13.11a3,3,0,0,0,1.63.49,3,3,0,0,0,2.35-1.11A92.76,92.76,0,0,0,258,36.09l5,9.37A2.87,2.87,0,0,0,265.58,47h0a3.2,3.2,0,0,0,1.23-.25l.15-.09a2.58,2.58,0,0,0,1.41-1.48A2.37,2.37,0,0,0,268.22,43.19Z"/><path class="cls-1" d="M266.18,0H225.32a9.72,9.72,0,0,0-9.72,9.7v47a3.14,3.14,0,0,0,6.28,0V9.7a3.44,3.44,0,0,1,3.44-3.43h40.86a4.21,4.21,0,0,1,4.21,4.2v34.6a6.1,6.1,0,0,1-1.95,4.46l-5.22,4.83a3.14,3.14,0,0,0,4.27,4.6l5.23-4.84a12.38,12.38,0,0,0,4-9V10.48A10.5,10.5,0,0,0,266.18,0Z"/><path class="cls-1" d="M107.43,5.38h24.19a2.78,2.78,0,0,0,2.88-2.76A2.76,2.76,0,0,0,131.62,0H74.71a2.75,2.75,0,0,0-2.88,2.75,2.73,2.73,0,0,0,2.88,2.63h26.55L99,13.09l0,.11H82.77a11,11,0,0,0-3.62.61,9.12,9.12,0,0,0-5,4.53,7.27,7.27,0,0,0-.77,3.35V57.18a2.93,2.93,0,0,0,5.83,0V21.68a2.91,2.91,0,0,1,1.06-2.24,3.42,3.42,0,0,1,2.49-.94H91.3V57.12a2.93,2.93,0,0,0,5.82,0V18.51H109.2V57.12a2.93,2.93,0,0,0,5.83,0V18.51h8.46a3.61,3.61,0,0,1,2.58.95,2.9,2.9,0,0,1,1,2.22h0l0,23.26a6.55,6.55,0,0,1-2,4.84l-5.25,5a2.93,2.93,0,0,0,4,4.23l5.21-5a12.34,12.34,0,0,0,3.81-9.1l0-23.34h0a7.25,7.25,0,0,0-.76-3.27,9.06,9.06,0,0,0-5.06-4.53,10.36,10.36,0,0,0-3.61-.61H105l2.35-7.58A1.68,1.68,0,0,0,107.43,5.38Z"/><path class="cls-1" d="M201.54,28.42a7.15,7.15,0,0,0,.77-3.3V8.55a7.07,7.07,0,0,0-.77-3.35,9.4,9.4,0,0,0-5-4.54A11.07,11.07,0,0,0,192.94,0H156.71a11.07,11.07,0,0,0-3.62.68,8.85,8.85,0,0,0-5,4.49,6.35,6.35,0,0,0-.86,3.39V25.12a6.41,6.41,0,0,0,.83,3.27,8.11,8.11,0,0,0,5,4.47,8.27,8.27,0,0,0,3.65.69h36.23a8.49,8.49,0,0,0,3.6-.67A8.55,8.55,0,0,0,201.54,28.42Zm-8.6-.13H177.49v-9h19v5.85a2.86,2.86,0,0,1-1,2.16A3.79,3.79,0,0,1,192.94,28.3Zm3.54-19.74V14h-19V5.38h15.45a3.71,3.71,0,0,1,2.5.95A2.83,2.83,0,0,1,196.48,8.55ZM171.59,19.27v9H156.71a3.64,3.64,0,0,1-2.5-1,3,3,0,0,1-1.11-2.16V19.27ZM156.71,5.38h14.88V14H153.1V8.55a2.89,2.89,0,0,1,1.11-2.23A3.61,3.61,0,0,1,156.71,5.38Z"/><path class="cls-1" d="M151.58,34.55h-.07a2.83,2.83,0,0,0-3.23,2.22,69.89,69.89,0,0,1-2,9.22c-1,3.12-2,5.77-3,8.09a2.29,2.29,0,0,0-.07,1.87,2.75,2.75,0,0,0,1.6,1.54l.15,0a2.62,2.62,0,0,0,1.09.24,3.36,3.36,0,0,0,1.15-.22,2.7,2.7,0,0,0,1.6-1.44C150,53,151,50.26,151.86,47.58a72.62,72.62,0,0,0,2.22-10.06,2.45,2.45,0,0,0-.5-2A2.71,2.71,0,0,0,151.58,34.55Z"/><path class="cls-1" d="M206.2,54.65l-6-18.32a2.91,2.91,0,0,0-2.75-1.81,2.29,2.29,0,0,0-.66.08h-.19A2.8,2.8,0,0,0,194.73,36a2.43,2.43,0,0,0-.14,2l6,18.24A2.89,2.89,0,0,0,204.13,58l0,0A2.73,2.73,0,0,0,206,56.62,2.31,2.31,0,0,0,206.2,54.65Z"/><g id="_编组_" data-name="&lt;编组&gt;"><g id="_编组_2" data-name="&lt;编组&gt;"><g id="_编组_3" data-name="&lt;编组&gt;"><path class="cls-1" d="M191,48.94c.11-.44.19-.88.26-1.33a11.44,11.44,0,0,0-9.65-13,9.16,9.16,0,0,0-10.4,7.7,7.42,7.42,0,0,0,6.27,8.43,2.38,2.38,0,1,0,.7-4.71,2.65,2.65,0,0,1-2.24-3,4.38,4.38,0,0,1,5-3.68,6.68,6.68,0,0,1,5.63,7.58,9.78,9.78,0,0,1-11.1,8.22,13.9,13.9,0,0,1-11.72-15.77,2.39,2.39,0,0,0-4.72-.7,18.68,18.68,0,0,0,15.75,21.19A14.56,14.56,0,0,0,191,48.94Z"/></g></g></g><path class="cls-1" d="M59.32,34.1h-17c2.88-2.82,7.52-7.89,8.71-10a2.42,2.42,0,0,0,.37-1.24,2.8,2.8,0,0,0-2.95-2.63H9.63a2.64,2.64,0,1,0,0,5.25H42.87c-4,3.47-4.88,5.24-9,8.59h-30a2.66,2.66,0,1,0,0,5.31H32.07V45a6.54,6.54,0,0,1-2,4.75l-5.25,5a2.93,2.93,0,0,0,4,4.23l5.21-5a11.78,11.78,0,0,0,3.81-9.1V39.41H59.32a2.66,2.66,0,1,0,0-5.31Z"/><path class="cls-1" d="M56.28,7.94l1.09-4a1.64,1.64,0,0,0,0-.34A2.8,2.8,0,0,0,55.06,1S52.71.4,51.83,2.33c0,.09-.09.17-.13.26a2.93,2.93,0,0,0-.11.3L50.24,7.54l0,.07H34.68v-5A3,3,0,0,0,31.61,0a2.88,2.88,0,0,0-2.94,2.67v5H13.15v0l-1.36-4.7a2.61,2.61,0,0,0-.12-.32A3,3,0,0,0,8.06,1a2.94,2.94,0,0,0-2.2,2.71,1.2,1.2,0,0,0,.07.38L7,7.93c-4.15.93-7,4.19-7,8.12v1.21a2.8,2.8,0,0,0,3,2.66,2.78,2.78,0,0,0,2.93-2.66V16.06a3.42,3.42,0,0,1,3.51-3.11H53.85a3.51,3.51,0,0,1,3.58,3.11v1.21a2.77,2.77,0,0,0,2.86,2.66h.14a2.78,2.78,0,0,0,2.93-2.66V16.06C63.36,12.2,60.48,8.93,56.28,7.94Z"/><path class="cls-1" d="M290.38,15.33h-.15c-1.54,0-2.84,1-2.84,2.21,0,6.52-.23,12.4-.71,17.94-.39,4.47-.83,10.17-1.42,14.45a1.87,1.87,0,0,0,.44,1.47,2.84,2.84,0,0,0,2.11,1h.09l.41,0a2.68,2.68,0,0,0,2.77-2c.58-4.78,1.05-10.2,1.43-14.55.49-6.58.71-12.39.71-18.29C293.21,16.34,291.91,15.33,290.38,15.33Z"/><path class="cls-1" d="M308.42,8.28h-6.75V2.94A2.73,2.73,0,0,0,298.79.31h-.14a2.73,2.73,0,0,0-2.88,2.62V8.28h-6.61A2.85,2.85,0,0,0,286.29,11a2.77,2.77,0,0,0,2.88,2.63h6.61V57.22a2.73,2.73,0,0,0,2.88,2.63h.14a2.73,2.73,0,0,0,2.88-2.63V13.66h6.75a2.79,2.79,0,0,0,2.88-2.75A2.83,2.83,0,0,0,308.42,8.28Z"/><path class="cls-1" d="M306.85,15.44c-1.59,0-2.83,1-2.83,2.27V50.65c0,1.27,1.25,2.27,2.83,2.27h.07a2.6,2.6,0,0,0,2.83-2.27V17.71C309.76,16.46,308.49,15.44,306.85,15.44Z"/><path class="cls-1" d="M344.62,27.19a2.63,2.63,0,0,0,1.8,1.07,3,3,0,0,0,2.1-.35l.3-.12A2.74,2.74,0,0,0,350,26a2.3,2.3,0,0,0-.47-1.77l-7.69-10.44A2.73,2.73,0,0,0,340,12.64a3,3,0,0,0-2.1.35l-.28.11a2.6,2.6,0,0,0-1.17,1.72,2.5,2.5,0,0,0,.45,2l3.67,5a3.15,3.15,0,0,0-.29.42c-1.72,3.13-3.55,6.19-5.46,9.07l-.62.92c-.65,1-1.26,1.86-1.91,2.75L322,23.28l-.06-.06a61.68,61.68,0,0,0,4.43-6.54,2.37,2.37,0,0,0,.28-1.92A2.83,2.83,0,0,0,325.21,13l-.26-.06A3.12,3.12,0,0,0,321.24,14a68.16,68.16,0,0,1-7.27,10,2.51,2.51,0,0,0-.67,1.87,2.58,2.58,0,0,0,1,1.87,3.35,3.35,0,0,0,2.17.58,3.12,3.12,0,0,0,1.83-.85l10.49,12c-4.19,5.23-8.68,11.35-13.72,15.67a2.68,2.68,0,0,0-.91,1.94A2.46,2.46,0,0,0,315,59a3.16,3.16,0,0,0,2,.81,3.13,3.13,0,0,0,2.05-.7A118.56,118.56,0,0,0,332.6,44.9l0,0,11.87,14a2.92,2.92,0,0,0,2.22.95,3.26,3.26,0,0,0,1.9-.61,2.55,2.55,0,0,0,1.12-1.83,2.37,2.37,0,0,0-.68-1.86L336.13,39.37a140.39,140.39,0,0,0,8.11-12.67Z"/><path class="cls-1" d="M347,6H334.1V2.63a2.67,2.67,0,0,0-5.34,0V6h-12.5a2.6,2.6,0,0,0-2.63,2.56v.14a2.6,2.6,0,0,0,2.63,2.63H347a2.6,2.6,0,0,0,2.64-2.63V8.6A2.6,2.6,0,0,0,347,6Z"/></g></g></svg>